<svg viewBox="0 0 512 512" xmlns="http://www.w3.org/2000/svg" xmlns:xlink="http://www.w3.org/1999/xlink" id="Capa_1" overflow="hidden"><g><g><path d="M467 76 45 76C20.137 76 0 96.262 0 121L0 391C0 415.885 20.285 436 45 436L467 436C491.655 436 512 415.97 512 391L512 121C512 96.306 491.943 76 467 76ZM460.698 106C451.504 115.145 293.283 272.533 287.82 277.967 279.32 286.467 268.02 291.147 256 291.147 243.98 291.147 232.68 286.466 224.152 277.939 220.478 274.284 64.003 118.634 51.302 106L460.698 106ZM30 384.894 30 127.125 159.638 256.08 30 384.894ZM51.321 406 180.908 277.237 202.967 299.18C217.133 313.346 235.967 321.147 256 321.147 276.033 321.147 294.867 313.346 309.005 299.208L331.092 277.237 460.679 406 51.321 406ZM482 384.894 352.362 256.08 482 127.125 482 384.894Z" fill="#FFBDC5"/></g></g><g></g><g></g><g></g><g></g><g></g><g></g><g></g><g></g><g></g><g></g><g></g><g></g><g></g><g></g><g></g></svg>