<svg width="430.643" height="430.552" xmlns="http://www.w3.org/2000/svg" xmlns:xlink="http://www.w3.org/1999/xlink" id="svg887" overflow="hidden"><defs id="defs891"></defs><path d="M44.2936 427.901C20.2457 421.799 8.08054 409.127 2.20818 384.061-0.719292 371.566-0.743897 59.2368 2.18172 46.5905 8.04785 21.2325 21.1057 8.18242 46.5859 2.21292 59.1801-0.737641 371.463-0.737641 384.057 2.21292 409.537 8.18242 422.595 21.2325 428.461 46.5905 431.386 59.2368 431.362 371.566 428.435 384.061 422.465 409.542 409.415 422.6 384.057 428.466 378.897 429.659 355.205 430.552 328.683 430.552 283.203 430.552 276.35 429.755 272.52 424.019 270.396 420.838 270.785 260.998 272.925 257.602 274.345 255.35 280.536 254.51 301.24 253.759L327.738 252.798 328.284 233.251 328.83 213.705 303.111 213.074C284.914 212.628 276.464 211.672 274.22 209.806 271.512 207.554 271.049 202.619 271.049 175.995 271.049 148.454 271.451 144.457 274.497 141.7 277.229 139.228 283.111 138.468 302.841 138.04L327.738 137.499 328.288 117.599 328.838 97.6991 298.503 98.4132C269.073 99.106 267.856 99.2986 257.746 104.861 247.183 110.674 238.368 120.67 233.418 132.449 231.441 137.153 230.695 147.592 230.695 170.528 230.695 198.987 229.708 206.729 225.475 211.483 225.005 212.011 212.799 212.876 198.352 213.404L172.084 214.365 172.084 233.582 172.084 252.798 198.026 253.294C221.715 253.746 224.261 254.14 227.332 257.83 230.412 261.532 230.695 268.384 230.695 339.395 230.695 392.118 230.012 418.417 228.561 421.602 227.388 424.177 224.32 427.245 221.745 428.418 215.207 431.397 56.245 430.934 44.2936 427.901ZM208.595 341.195 208.595 275.858 183.614 274.897C169.71 274.363 156.928 272.933 154.789 271.673 151.216 269.568 150.903 267.027 150.34 235.496 149.528 190.063 147.996 192.266 180.391 192.266 196.926 192.266 205.697 191.513 207.25 189.96 208.808 188.402 209.556 179.513 209.556 162.549 209.556 136.129 211.883 125.487 220.821 111.025 227.008 101.014 240.225 89.7106 252.794 83.6817 264.053 78.2804 265.212 78.1317 302.271 77.3344 335.119 76.6277 340.865 76.9415 345.028 79.6691L349.837 82.8201 349.837 118.029C349.837 149.449 349.467 153.573 346.39 156.357 343.658 158.83 337.776 159.589 318.045 160.018L293.148 160.559 293.148 175.932 293.148 191.305 318.921 191.844C340.631 192.297 345.09 192.903 347.205 195.687 349.047 198.112 349.731 208.076 349.776 233.101 349.855 277.12 351.589 274.897 317.169 274.897L292.188 274.897 292.188 341.289 292.188 407.68 340.093 407.105C392.799 406.474 392.715 406.492 402.564 393.3 406.497 388.033 406.526 386.721 406.526 215.326 406.526 43.9307 406.496 42.6194 402.564 37.3518 400.385 34.4331 396.214 30.2621 393.295 28.083 388.028 24.1501 386.717 24.1209 215.321 24.1209 43.9259 24.1209 42.6147 24.1512 37.347 28.083 34.4283 30.2621 30.2573 34.4328 28.0782 37.3511 24.1578 42.6014 24.1103 44.4172 23.559 210.182 23.2524 302.32 23.503 380.491 24.1158 383.895 25.5028 391.599 33.5791 401.415 41.3158 404.8 45.9479 406.826 64.0903 407.276 127.886 406.947L208.595 406.531Z" id="path874" stroke-width="1.92166" fill="#FFBDC5"/></svg>