<svg width="448.227" height="448.028" xmlns="http://www.w3.org/2000/svg" xmlns:xlink="http://www.w3.org/1999/xlink" id="svg878" overflow="hidden"><defs id="defs882"></defs><path d="M113.057 445.956C86.0739 441.108 63.5784 432.292 50.058 421.267 33.495 407.761 24.2725 396.213 15.5731 378.087 0.991098 347.704 0 337.905 0 224.113 0 110.322 0.991098 100.523 15.5731 70.1401 23.0847 54.489 26.5302 49.5699 38.05 38.0501 49.5699 26.5302 54.489 23.0847 70.1401 15.5731 100.523 0.991105 110.322 0 224.113 0 337.905 0 347.704 0.991105 378.087 15.5731 396.213 24.2725 407.761 33.495 421.267 50.058 427.839 58.1176 439.465 82.4287 441.866 93.1344 447.64 118.873 448.227 130.932 448.227 223.716 448.227 337.941 447.244 347.688 432.654 378.087 425.142 393.738 421.697 398.657 410.177 410.177 398.657 421.697 393.738 425.142 378.087 432.654 347.457 447.355 338.146 448.269 221.882 447.99 167.531 447.86 118.56 446.945 113.057 445.956ZM350.34 420.546C374.793 414.163 396.876 397.028 410.971 373.502 423.781 352.12 424.215 347.243 424.215 224.492 424.215 159.33 423.396 110.217 422.203 103.826 415.438 67.5744 380.653 32.7893 344.401 26.0237 337.948 24.8194 288.967 24.0585 222.34 24.1275 123.833 24.2296 109.544 24.6376 97.8872 27.6806 73.4343 34.0639 51.3505 51.1988 37.2561 74.7245 24.4456 96.1071 24.0122 100.984 24.0122 223.735 24.0122 288.897 24.8309 338.01 26.0237 344.401 32.619 379.74 67.4035 415.251 102.052 422.018 107.004 422.985 161.932 423.823 224.113 423.88 324.757 423.973 338.617 423.607 350.34 420.546ZM207.105 343.661C159.691 334.355 124.346 304.876 110.552 263.133 103.213 240.925 101.336 225.643 104.101 210.607 115.137 150.586 150.586 115.137 210.607 104.101 221.361 102.123 226.866 102.123 237.62 104.101 297.691 115.146 333.134 150.586 344.134 210.607 346.103 221.347 346.101 226.88 344.126 237.62 333.189 297.104 297.883 332.793 239.001 343.89 225.308 346.47 221.274 346.441 207.105 343.661ZM264.736 313.577C285.993 303.696 303.538 286.207 313.733 264.736 321.053 249.318 321.144 248.818 321.144 224.113 321.144 199.409 321.053 198.909 313.733 183.491 303.615 162.182 286.044 144.612 264.736 134.494 249.318 127.174 248.818 127.083 224.113 127.083 199.409 127.083 198.909 127.174 183.491 134.494 162.182 144.612 144.612 162.182 134.494 183.491 127.174 198.909 127.083 199.409 127.083 224.113 127.083 248.818 127.174 249.318 134.494 264.736 144.511 285.833 162.316 303.757 182.49 313.052 201.115 321.634 202.9 321.958 228.116 321.344 247.518 320.872 250.321 320.277 264.736 313.577ZM338.531 124.7C327.382 119.206 321.426 109.424 320.633 95.3082 319.841 81.1961 323.225 74.0083 334.824 65.1612 340.572 60.777 343.96 59.8131 353.787 59.7661 367.658 59.6996 376.689 64.431 384.011 75.5998 390.751 85.8819 390.3 103.919 383.066 113.403 380.13 117.252 374.906 122.122 371.456 124.226 363.635 128.995 347.712 129.224 338.531 124.7ZM365.127 100.163C367.378 95.8098 367.662 92.9283 366.215 89.1217 361.585 76.9453 342.173 79.6252 342.173 92.4407 342.173 100.87 347.224 106.054 355.439 106.054 360.767 106.054 362.683 104.888 365.127 100.163Z" id="path876" stroke-width="2.00101" fill="#C2A5A5" fill-opacity="0.980392"/></svg>