<svg width="444.481" height="444.387" xmlns="http://www.w3.org/2000/svg" xmlns:xlink="http://www.w3.org/1999/xlink" id="svg896" overflow="hidden"><defs id="defs900"></defs><path d="M45.7169 441.651C20.8962 435.353 8.3402 422.274 2.27913 396.403-0.742408 383.505-0.767803 61.1403 2.25184 48.0876 8.30647 21.9147 21.7839 8.44536 48.0829 2.28402 61.0818-0.761339 383.399-0.761339 396.398 2.28402 422.697 8.44536 436.174 21.9147 442.229 48.0876 445.248 61.1403 445.223 383.505 442.202 396.403 436.041 422.702 422.572 436.179 396.399 442.234 391.073 443.466 366.619 444.387 339.245 444.387 292.304 444.387 285.231 443.564 281.278 437.644 279.086 434.361 279.487 269.384 281.696 265.88 283.161 263.556 289.552 262.688 310.921 261.913L338.271 260.922 338.834 240.747 339.398 220.572 312.852 219.921C294.07 219.46 285.348 218.474 283.033 216.548 280.238 214.223 279.76 209.129 279.76 181.65 279.76 153.224 280.175 149.098 283.318 146.254 286.138 143.702 292.209 142.918 312.574 142.475L338.271 141.917 338.838 121.378 339.406 100.838 308.095 101.576C277.72 102.291 276.464 102.489 266.029 108.231 255.126 114.23 246.028 124.548 240.919 136.705 238.879 141.56 238.108 152.334 238.108 176.008 238.108 205.381 237.09 213.372 232.721 218.278 232.236 218.824 219.638 219.716 204.726 220.262L177.615 221.253 177.615 241.087 177.615 260.922 204.391 261.433C228.84 261.9 231.468 262.306 234.637 266.115 237.817 269.936 238.108 277.008 238.108 350.301 238.108 404.718 237.404 431.863 235.906 435.149 234.695 437.808 231.529 440.974 228.871 442.185 222.123 445.259 58.0532 444.781 45.7177 441.651ZM215.298 352.158 215.298 284.722 189.514 283.731C175.164 283.179 161.971 281.703 159.763 280.403 156.075 278.23 155.752 275.608 155.171 243.063 154.333 196.17 152.752 198.444 186.188 198.444 203.254 198.444 212.307 197.667 213.91 196.064 215.518 194.456 216.29 185.281 216.29 167.773 216.29 140.504 218.692 129.519 227.917 114.592 234.302 104.26 247.944 92.5933 260.917 86.3706 272.538 80.7958 273.734 80.6424 311.984 79.8194 345.887 79.09 351.819 79.4139 356.115 82.2291L361.079 85.4814 361.079 121.821C361.079 154.252 360.696 158.508 357.52 161.381 354.701 163.933 348.63 164.717 328.265 165.16L302.568 165.718 302.568 181.585 302.568 197.453 329.169 198.008C351.577 198.476 356.179 199.102 358.362 201.975 360.263 204.478 360.969 214.762 361.016 240.592 361.097 286.025 362.887 283.731 327.361 283.731L301.577 283.731 301.577 352.255 301.577 420.78 351.021 420.187C405.421 419.535 405.334 419.554 415.5 405.938 419.559 400.501 419.589 399.148 419.589 222.245 419.589 45.3423 419.559 43.9889 415.5 38.552 413.251 35.5395 408.946 31.2345 405.933 28.9853 400.496 24.9261 399.143 24.896 222.24 24.896 45.3374 24.896 43.984 24.9262 38.5471 28.9853 35.5346 31.2345 31.2296 35.5392 28.9805 38.5513 24.9341 43.9704 24.8851 45.8445 24.316 216.936 23.9996 312.035 24.2582 392.718 24.8908 396.231 26.3223 404.183 34.6581 414.314 42.6434 417.807 47.4244 419.899 66.1497 420.363 131.995 420.024L215.298 419.594Z" id="path874" stroke-width="1.98341" fill="#C2A5A5"/></svg>